<svg width="65" height="69" viewBox="0 0 65 69" fill="none" xmlns="http://www.w3.org/2000/svg">
    <path d="M55.1523 12.1765V12.9873H57.6051C58.1997 12.9873 58.6215 13.1224 58.8705 13.3927C59.1226 13.685 59.2537 14.0614 59.2373 14.446V51.2481C59.2373 53.789 58.7612 56.0725 57.8091 58.0987C56.857 60.125 55.606 61.827 54.0563 63.2049C52.5165 64.5767 50.7311 65.6491 48.7929 66.3661C46.8906 67.0859 44.8726 67.4571 42.837 67.4615C41.0409 67.4613 39.259 67.1455 37.5736 66.5289C35.8515 65.9036 34.2903 64.9069 33.0025 63.6103C31.6668 62.2863 30.6047 60.5972 29.8161 58.5429C29.7603 58.3967 29.7046 58.2472 29.6544 58.0998C27.914 58.4865 26.1364 58.6834 24.353 58.6869C24.4043 58.7977 24.4567 58.9173 24.5102 59.0303C25.5716 61.2455 26.9723 63.0964 28.7123 64.5828C30.4457 66.0652 32.4558 67.1942 34.628 67.9057C36.8245 68.6344 39.1255 69.0039 41.4412 69C43.7735 69.0015 46.0899 68.6178 48.2956 67.8647C50.4803 67.1348 52.5026 65.9926 54.2514 64.5008C55.9914 63.0151 57.3925 61.1643 58.4546 58.9483C59.5168 56.7323 60.0471 54.1652 60.0456 51.247V14.446C60.0286 14.0614 60.1598 13.6847 60.4124 13.3927C60.6562 13.1224 61.0776 12.9873 61.6767 12.9873H64.1295V12.1765H55.1523Z" fill="#2D2D2D"/>
    <path d="M29.1931 55.8365C28.6697 54.0439 28.408 51.9983 28.408 49.6997V12.8279C28.3915 12.442 28.5223 12.0643 28.7739 11.7715C29.0168 11.5018 29.4392 11.3653 30.0313 11.3653H32.4707V10.553H18.6707V11.3653H21.11C21.7043 11.3653 22.1234 11.5018 22.3674 11.7715C22.6182 12.0647 22.7486 12.4422 22.7322 12.8279V49.6963C22.7322 51.8869 23.0178 53.8719 23.5892 55.6511C24.6501 55.8923 25.7346 56.0133 26.8225 56.0118C27.6159 56.0118 28.4083 55.9532 29.1931 55.8365Z" fill="#2D2D2D"/>
    <path d="M19.6314 54.5092C17.3185 53.1863 15.2367 51.4171 13.3862 49.2017C11.5356 46.9862 9.94384 44.4334 8.61077 41.5432C7.27856 38.6583 6.25295 35.6433 5.55059 32.5471C4.84509 29.4627 4.48898 26.3097 4.4889 23.1468C4.4889 19.9857 4.89782 17.0409 5.71565 14.3123C6.48641 11.6733 7.74582 9.20009 9.42935 7.01933C11.0888 4.88509 13.2516 3.30453 15.9177 2.27764C17.8872 1.47932 19.9933 1.06573 22.1206 1.05956C25.276 1.05956 28.1328 1.92403 30.6911 3.65298C33.2495 5.38192 35.426 7.59663 37.2208 10.2971L44.6471 10.7024C42.5259 7.46005 39.7237 4.85298 36.2405 2.88115C32.7573 0.909326 28.7852 -0.0503789 24.3243 0.0020358C20.2976 0.0559269 16.7608 0.9204 13.714 2.59545C10.7266 4.22165 8.12448 6.4641 6.08256 9.17202C4.04318 11.874 2.51904 14.9535 1.51013 18.4107C-0.503377 25.2919 -0.503377 32.6001 1.51013 39.4814C2.51606 42.9392 4.04021 46.0055 6.08256 48.6801C8.12877 51.3596 10.7315 53.5708 13.714 55.1637C16.7623 56.8129 20.2991 57.6368 24.3243 57.6353H24.3355C24.118 57.1475 23.927 56.6485 23.7633 56.1404C22.3113 55.8061 20.9183 55.2562 19.6314 54.5092Z" fill="url(#paint0_linear_154_2111)"/>
    <path d="M31.4569 56.3303C33.8778 55.6576 36.1932 54.6838 38.3424 53.4346C40.4127 52.2183 42.0924 50.7638 43.3815 49.0711C44.6707 47.3785 45.3145 45.5536 45.313 43.5965V35.5037C45.2958 35.1267 45.4312 34.7577 45.6917 34.4716C45.9426 34.2085 46.3764 34.0766 46.993 34.0759H49.5177V33.2823H35.2439V34.0759H37.7686C38.3838 34.0759 38.8187 34.2082 39.07 34.4716C39.33 34.7579 39.465 35.1268 39.4476 35.5037V45.3418C39.4447 47.1043 39.1033 48.8516 38.44 50.4989C37.7683 52.1923 36.5086 53.4881 34.661 54.3865C33.4065 55.0417 32.0649 55.5353 30.6719 55.8543C30.1861 55.962 29.7033 56.0495 29.2236 56.1167C29.2971 56.3574 29.3774 56.5926 29.4623 56.8235C30.1241 56.6848 30.789 56.5203 31.4569 56.3303Z" fill="url(#paint1_linear_154_2111)"/>
    <path d="M29.7812 56.2102C28.9065 56.3377 28.0232 56.4021 27.1387 56.4026C25.9283 56.4042 24.7216 56.2731 23.5413 56.0117C23.7215 56.5635 23.932 57.1054 24.1717 57.6352C26.1443 57.6301 28.1105 57.4151 30.0354 56.9943C29.9466 56.7381 29.8602 56.4807 29.7812 56.2102Z" fill="url(#paint2_linear_154_2111)"/>
    <defs>
        <linearGradient id="paint0_linear_154_2111" x1="5.19484" y1="37.9067" x2="47.7834" y2="13.575" gradientUnits="userSpaceOnUse">
            <stop stop-color="#EBB376"/>
            <stop offset="0.31" stop-color="#EBB376"/>
            <stop offset="0.42" stop-color="#FAD1C2"/>
            <stop offset="0.58" stop-color="#FFDBC5"/>
            <stop offset="0.68" stop-color="#EBB376"/>
            <stop offset="1" stop-color="#C18B56"/>
        </linearGradient>
        <linearGradient id="paint1_linear_154_2111" x1="14.609" y1="55.2581" x2="57.3319" y2="29.6023" gradientUnits="userSpaceOnUse">
            <stop stop-color="#EBB376"/>
            <stop offset="0.31" stop-color="#EBB376"/>
            <stop offset="0.42" stop-color="#FAD1C2"/>
            <stop offset="0.58" stop-color="#FFDBC5"/>
            <stop offset="0.68" stop-color="#EBB376"/>
            <stop offset="1" stop-color="#C18B56"/>
        </linearGradient>
        <linearGradient id="paint2_linear_154_2111" x1="17.722" y1="61.5173" x2="64.4032" y2="34.3515" gradientUnits="userSpaceOnUse">
            <stop stop-color="#EBB376"/>
            <stop offset="0.31" stop-color="#EBB376"/>
            <stop offset="0.42" stop-color="#FAD1C2"/>
            <stop offset="0.58" stop-color="#FFDBC5"/>
            <stop offset="0.68" stop-color="#EBB376"/>
            <stop offset="1" stop-color="#C18B56"/>
        </linearGradient>
    </defs>
</svg>
