<svg width="66" height="65" viewBox="0 0 66 65" fill="none" xmlns="http://www.w3.org/2000/svg">
    <path d="M41.6347 6.55986L37.3614 2.96148C34.849 0.84593 31.152 0.84593 28.6396 2.96148L24.3668 6.55997C23.2902 7.46653 21.9498 8.01458 20.5397 8.12576L14.9462 8.56692C11.6558 8.82637 9.04176 11.4082 8.77918 14.6595L8.33109 20.1898C8.21857 21.5831 7.6657 22.9056 6.74822 23.9694L3.10581 28.1919C0.964773 30.6743 0.965442 34.3257 3.10648 36.8081L6.74661 41.0306C7.6641 42.0944 8.22003 43.4169 8.33255 44.8102L8.7803 50.3405C9.04289 53.5918 11.6524 56.1736 14.9429 56.4331L20.5415 56.8742C21.9516 56.9854 23.2896 57.5335 24.3662 58.44L28.6387 62.0385C31.1511 64.1541 34.849 64.154 37.3614 62.0384L41.6338 58.4399C42.7104 57.5333 44.0485 56.9856 45.4585 56.8744L51.0572 56.433C54.3476 56.1736 56.9572 53.5917 57.2198 50.3404L57.6675 44.8103C57.78 43.417 58.336 42.0944 59.2534 41.0306L62.8936 36.808C65.0346 34.3255 65.0362 30.6744 62.8952 28.1919L59.252 23.9695C58.3345 22.9057 57.7789 21.583 57.6664 20.1897L57.2231 14.6594C56.9605 11.4082 54.3458 8.82653 51.0554 8.56707L45.4591 8.12558C44.049 8.0144 42.7113 7.46642 41.6347 6.55986Z" fill="#F45454" stroke="white" stroke-width="2" stroke-linecap="round" stroke-linejoin="round"/>
</svg>
